# xmcd
#
# Track frame offsets:
#	150
#	14234
#	29074
#	47058
#	62185
#	77261
#	88418
#	110288
#	127243
#	149442
#	162302
#	174024
#	185301
#	198365
#	211345
#	219309
#	236269
#	262323
#
# Disc length: 3794 seconds
#
# Revision: 1
# Processed by: cddbd v1.5.2PL0 Copyright (c) Steve Scherf et al.
# Submitted via: audiograbber 1.83.01
#
DISCID=090ed012
DTITLE=Nocna Zmiana Bluesa (HiNKuPsO) - Blues mieszka w Polsce
DYEAR=2006
DGENRE=Acoustic Blues
TTITLE0=Blues mieszka w Polsce
TTITLE1=Trudne chwile
TTITLE2=Tylko forsa
TTITLE3=Klapa
TTITLE4=Zakratowana cela
TTITLE5=Niespodziewany cios
TTITLE6=Blues dla zmartwionych
TTITLE7=Ciezki dzien
TTITLE8=Nareszcie koniec
TTITLE9=Tylko on
TTITLE10=Meisterklasse boogie
TTITLE11=Sto kilometrow
TTITLE12=Naiwna nadzieja
TTITLE13=Zbyt pozno
TTITLE14=Ostatni blues
TTITLE15=Robota kipi
TTITLE16=Bardzo ciezkie czasy
TTITLE17=Data Track
EXTD=
EXTT0=
EXTT1=
EXTT2=
EXTT3=
EXTT4=
EXTT5=
EXTT6=
EXTT7=
EXTT8=
EXTT9=
EXTT10=
EXTT11=
EXTT12=
EXTT13=
EXTT14=
EXTT15=
EXTT16=
EXTT17=
PLAYORDER=
